<?xml version="1.0" encoding="UTF-8" standalone="no"?>
<!DOCTYPE svg PUBLIC "-//W3C//DTD SVG 1.1//EN"
 "http://www.w3.org/Graphics/SVG/1.1/DTD/svg11.dtd">
<!-- Generated by graphviz version 14.0.4 (20251115.1723)
 -->
<!-- Title: transformer Pages: 1 -->
<svg width="238pt" height="627pt"
 viewBox="0.00 0.00 238.00 627.00" xmlns="http://www.w3.org/2000/svg" xmlns:xlink="http://www.w3.org/1999/xlink">
<g id="graph0" class="graph" transform="scale(1 1) rotate(0) translate(4 623)">
<title>transformer</title>
<polygon fill="white" stroke="none" points="-4,4 -4,-623 233.5,-623 233.5,4 -4,4"/>
<!-- Input -->
<g id="node1" class="node">
<title>Input</title>
<polygon fill="#fff3e0" stroke="black" stroke-width="1.5" points="64.75,-36 3.75,-36 3.75,0 70.75,0 70.75,-30 64.75,-36"/>
<polyline fill="none" stroke="black" stroke-width="1.5" points="64.75,-36 64.75,-30"/>
<polyline fill="none" stroke="black" stroke-width="1.5" points="70.75,-30 64.75,-30"/>
<text xml:space="preserve" text-anchor="middle" x="37.25" y="-19.75" font-family="Helvetica,sans-Serif" font-size="10.00">Input Token</text>
<text xml:space="preserve" text-anchor="middle" x="37.25" y="-8.5" font-family="Helvetica,sans-Serif" font-size="10.00">&#39;Spread&#39;</text>
</g>
<!-- AddNorm1 -->
<g id="node2" class="node">
<title>AddNorm1</title>
<path fill="#e3f2fd" stroke="black" stroke-width="1.5" d="M60.25,-287C60.25,-287 14.25,-287 14.25,-287 8.25,-287 2.25,-281 2.25,-275 2.25,-275 2.25,-263 2.25,-263 2.25,-257 8.25,-251 14.25,-251 14.25,-251 60.25,-251 60.25,-251 66.25,-251 72.25,-257 72.25,-263 72.25,-263 72.25,-275 72.25,-275 72.25,-281 66.25,-287 60.25,-287"/>
<text xml:space="preserve" text-anchor="middle" x="37.25" y="-265.12" font-family="Helvetica,sans-Serif" font-size="10.00">Add &amp; Norm</text>
</g>
<!-- Input&#45;&gt;AddNorm1 -->
<g id="edge1" class="edge">
<title>Input&#45;&gt;AddNorm1</title>
<path fill="none" stroke="#ff9800" stroke-width="3" d="M17.15,-36.46C17.15,-36.46 17.15,-235.98 17.15,-235.98"/>
<polygon fill="#ff9800" stroke="#ff9800" stroke-width="3" points="13.65,-235.98 17.15,-245.98 20.65,-235.98 13.65,-235.98"/>
<text xml:space="preserve" text-anchor="middle" x="66.88" y="-140.4" font-family="Helvetica,sans-Serif" font-size="8.00">Residual Stream</text>
</g>
<!-- LN1 -->
<g id="node5" class="node">
<title>LN1</title>
<path fill="white" stroke="black" stroke-width="1.5" d="M198.75,-117C198.75,-117 155.75,-117 155.75,-117 149.75,-117 143.75,-111 143.75,-105 143.75,-105 143.75,-93 143.75,-93 143.75,-87 149.75,-81 155.75,-81 155.75,-81 198.75,-81 198.75,-81 204.75,-81 210.75,-87 210.75,-93 210.75,-93 210.75,-105 210.75,-105 210.75,-111 204.75,-117 198.75,-117"/>
<text xml:space="preserve" text-anchor="middle" x="177.25" y="-95.12" font-family="Helvetica,sans-Serif" font-size="10.00">Layer Norm</text>
</g>
<!-- Input&#45;&gt;LN1 -->
<g id="edge4" class="edge">
<title>Input&#45;&gt;LN1</title>
<path fill="none" stroke="black" stroke-width="1.2" d="M30.55,-36.45C30.55,-61.99 30.55,-105 30.55,-105 30.55,-105 131.41,-105 131.41,-105"/>
<polygon fill="black" stroke="black" stroke-width="1.2" points="131.41,-108.5 141.41,-105 131.41,-101.5 131.41,-108.5"/>
</g>
<!-- Input&#45;&gt;LN1 -->
<g id="edge10" class="edge">
<title>Input:e&#45;&gt;LN1:s</title>
<path fill="none" stroke="black" stroke-width="1.2" d="M57.35,-18C57.35,-18 57.35,-93 57.35,-93 57.35,-93 165.43,-93 165.43,-93"/>
<polygon fill="black" stroke="black" stroke-width="1.2" points="165.43,-96.5 175.43,-93 165.43,-89.5 165.43,-96.5"/>
</g>
<!-- AddNorm2 -->
<g id="node3" class="node">
<title>AddNorm2</title>
<path fill="#e3f2fd" stroke="black" stroke-width="1.5" d="M60.25,-538C60.25,-538 14.25,-538 14.25,-538 8.25,-538 2.25,-532 2.25,-526 2.25,-526 2.25,-514 2.25,-514 2.25,-508 8.25,-502 14.25,-502 14.25,-502 60.25,-502 60.25,-502 66.25,-502 72.25,-508 72.25,-514 72.25,-514 72.25,-526 72.25,-526 72.25,-532 66.25,-538 60.25,-538"/>
<text xml:space="preserve" text-anchor="middle" x="37.25" y="-516.12" font-family="Helvetica,sans-Serif" font-size="10.00">Add &amp; Norm</text>
</g>
<!-- AddNorm1&#45;&gt;AddNorm2 -->
<g id="edge2" class="edge">
<title>AddNorm1&#45;&gt;AddNorm2</title>
<path fill="none" stroke="#ff9800" stroke-width="3" d="M25.58,-287.46C25.58,-287.46 25.58,-486.98 25.58,-486.98"/>
<polygon fill="#ff9800" stroke="#ff9800" stroke-width="3" points="22.08,-486.98 25.58,-496.98 29.08,-486.98 22.08,-486.98"/>
<text xml:space="preserve" text-anchor="middle" x="66.88" y="-391.4" font-family="Helvetica,sans-Serif" font-size="8.00">Residual Stream</text>
</g>
<!-- LN2 -->
<g id="node7" class="node">
<title>LN2</title>
<path fill="white" stroke="black" stroke-width="1.5" d="M184.75,-368C184.75,-368 141.75,-368 141.75,-368 135.75,-368 129.75,-362 129.75,-356 129.75,-356 129.75,-344 129.75,-344 129.75,-338 135.75,-332 141.75,-332 141.75,-332 184.75,-332 184.75,-332 190.75,-332 196.75,-338 196.75,-344 196.75,-344 196.75,-356 196.75,-356 196.75,-362 190.75,-368 184.75,-368"/>
<text xml:space="preserve" text-anchor="middle" x="163.25" y="-346.12" font-family="Helvetica,sans-Serif" font-size="10.00">Layer Norm</text>
</g>
<!-- AddNorm1&#45;&gt;LN2 -->
<g id="edge7" class="edge">
<title>AddNorm1&#45;&gt;LN2</title>
<path fill="none" stroke="black" stroke-width="1.2" d="M72.93,-263C113.57,-263 174.42,-263 174.42,-263 174.42,-263 174.42,-319.73 174.42,-319.73"/>
<polygon fill="black" stroke="black" stroke-width="1.2" points="170.92,-319.73 174.42,-329.73 177.92,-319.73 170.92,-319.73"/>
</g>
<!-- AddNorm1&#45;&gt;LN2 -->
<g id="edge11" class="edge">
<title>AddNorm1:e&#45;&gt;LN2:s</title>
<path fill="none" stroke="black" stroke-width="1.2" d="M72.25,-275C72.25,-275 152.08,-275 152.08,-275 152.08,-275 152.08,-320.18 152.08,-320.18"/>
<polygon fill="black" stroke="black" stroke-width="1.2" points="148.58,-320.18 152.08,-330.18 155.58,-320.18 148.58,-320.18"/>
</g>
<!-- Output -->
<g id="node4" class="node">
<title>Output</title>
<polygon fill="#fff3e0" stroke="black" stroke-width="1.5" points="68.5,-619 0,-619 0,-583 74.5,-583 74.5,-613 68.5,-619"/>
<polyline fill="none" stroke="black" stroke-width="1.5" points="68.5,-619 68.5,-613"/>
<polyline fill="none" stroke="black" stroke-width="1.5" points="74.5,-613 68.5,-613"/>
<text xml:space="preserve" text-anchor="middle" x="37.25" y="-602.75" font-family="Helvetica,sans-Serif" font-size="10.00">Output Token</text>
<text xml:space="preserve" text-anchor="middle" x="37.25" y="-591.5" font-family="Helvetica,sans-Serif" font-size="10.00">&#39;!&#39;</text>
</g>
<!-- AddNorm2&#45;&gt;Output -->
<g id="edge3" class="edge">
<title>AddNorm2&#45;&gt;Output</title>
<path fill="none" stroke="#ff9800" stroke-width="3" d="M37.25,-538.38C37.25,-538.38 37.25,-567.87 37.25,-567.87"/>
<polygon fill="#ff9800" stroke="#ff9800" stroke-width="3" points="33.75,-567.87 37.25,-577.87 40.75,-567.87 33.75,-567.87"/>
</g>
<!-- Attn -->
<g id="node6" class="node">
<title>Attn</title>
<path fill="#e8f5e9" stroke="black" stroke-width="1.5" d="M217.5,-206C217.5,-206 137,-206 137,-206 131,-206 125,-200 125,-194 125,-194 125,-182 125,-182 125,-176 131,-170 137,-170 137,-170 217.5,-170 217.5,-170 223.5,-170 229.5,-176 229.5,-182 229.5,-182 229.5,-194 229.5,-194 229.5,-200 223.5,-206 217.5,-206"/>
<text xml:space="preserve" text-anchor="middle" x="177.25" y="-189.75" font-family="Helvetica,sans-Serif" font-size="10.00">Multi&#45;Head Attention</text>
<text xml:space="preserve" text-anchor="middle" x="177.25" y="-178.5" font-family="Helvetica,sans-Serif" font-size="10.00">(GQA)</text>
</g>
<!-- LN1&#45;&gt;Attn -->
<g id="edge5" class="edge">
<title>LN1&#45;&gt;Attn</title>
<path fill="none" stroke="black" stroke-width="1.2" d="M177.25,-117.44C177.25,-117.44 177.25,-157.46 177.25,-157.46"/>
<polygon fill="black" stroke="black" stroke-width="1.2" points="173.75,-157.46 177.25,-167.46 180.75,-157.46 173.75,-157.46"/>
</g>
<!-- Attn&#45;&gt;AddNorm1 -->
<g id="edge6" class="edge">
<title>Attn&#45;&gt;AddNorm1</title>
<path fill="none" stroke="black" stroke-width="1.2" d="M124.57,-188C87.31,-188 43.95,-188 43.95,-188 43.95,-188 43.95,-238.8 43.95,-238.8"/>
<polygon fill="black" stroke="black" stroke-width="1.2" points="40.45,-238.8 43.95,-248.8 47.45,-238.8 40.45,-238.8"/>
</g>
<!-- MLP -->
<g id="node8" class="node">
<title>MLP</title>
<path fill="#f3e5f5" stroke="black" stroke-width="1.5" d="M189.25,-457C189.25,-457 137.25,-457 137.25,-457 131.25,-457 125.25,-451 125.25,-445 125.25,-445 125.25,-433 125.25,-433 125.25,-427 131.25,-421 137.25,-421 137.25,-421 189.25,-421 189.25,-421 195.25,-421 201.25,-427 201.25,-433 201.25,-433 201.25,-445 201.25,-445 201.25,-451 195.25,-457 189.25,-457"/>
<text xml:space="preserve" text-anchor="middle" x="163.25" y="-440.75" font-family="Helvetica,sans-Serif" font-size="10.00">Feed Forward</text>
<text xml:space="preserve" text-anchor="middle" x="163.25" y="-429.5" font-family="Helvetica,sans-Serif" font-size="10.00">(MLP)</text>
</g>
<!-- LN2&#45;&gt;MLP -->
<g id="edge8" class="edge">
<title>LN2&#45;&gt;MLP</title>
<path fill="none" stroke="black" stroke-width="1.2" d="M163.25,-368.44C163.25,-368.44 163.25,-408.46 163.25,-408.46"/>
<polygon fill="black" stroke="black" stroke-width="1.2" points="159.75,-408.46 163.25,-418.46 166.75,-408.46 159.75,-408.46"/>
</g>
<!-- MLP&#45;&gt;AddNorm2 -->
<g id="edge9" class="edge">
<title>MLP&#45;&gt;AddNorm2</title>
<path fill="none" stroke="black" stroke-width="1.2" d="M124.54,-439C91.37,-439 48.92,-439 48.92,-439 48.92,-439 48.92,-489.8 48.92,-489.8"/>
<polygon fill="black" stroke="black" stroke-width="1.2" points="45.42,-489.8 48.92,-499.8 52.42,-489.8 45.42,-489.8"/>
</g>
</g>
</svg>
